<?xml version="1.0" encoding="UTF-8" standalone="no"?>
<!DOCTYPE svg PUBLIC "-//W3C//DTD SVG 1.1//EN"
"http://www.w3.org/Graphics/SVG/1.1/DTD/svg11.dtd">
<svg viewBox="0 0 909 1286" version="1.1" xmlns="http://www.w3.org/2000/svg" xmlns:xlink="http://www.w3.org/1999/xlink">
<defs>
<clipPath id="c0"><path d="M0,1286.2V0H909.4V1286.2Z"/></clipPath>
<style type="text/css"><![CDATA[
.g0{
fill: #FFF;
}
.g1{
fill: #031724;
}
.g2{
fill: #024067;
}
.g3{
fill: none;
stroke: #737478;
stroke-width: 0.763;
stroke-miterlimit: 10;
}
.g4{
fill: #78CCF4;
}
.g5{
fill: none;
stroke: #42B2C6;
stroke-width: 0.763;
stroke-miterlimit: 10;
}
.g6{
fill: #E6E5E5;
}
.g7{
fill: #EBFCFC;
}
.g8{
fill: none;
stroke: #57BEDD;
stroke-width: 0.763;
stroke-miterlimit: 10;
}
.g9{
fill: #F7F6F9;
}
.ga{
fill: #4BC6FE;
}
.gb{
fill: none;
stroke: #737478;
stroke-width: 0.461;
stroke-miterlimit: 10;
}
.gc{
fill: none;
stroke: #FFF;
stroke-width: 0.458;
stroke-miterlimit: 10;
}
.gd{
fill: #FFE1ED;
}
.ge{
fill: none;
stroke: #E22B71;
stroke-width: 0.763;
stroke-miterlimit: 10;
}
.gf{
fill: #FFBAD1;
}
]]></style>
</defs>
<image x="0" y="0" width="909" height="200" xlink:href="./shade/1.png"/>
<g clip-path="url(#c0)" opacity="0.1">
<path d="M398.8,38.7v0c2.7,7.8,3.9,15.4,3.9,23.1c0,41.6,-36.1,81.5,-66,114.5c-10.6,11.7,-20.6,22.7,-27.1,32c-1.7,2.3,-2.5,4.8,-2.5,7.5c0,7.5,6.7,16.4,19.4,26.5C351.1,217.5,419,146,427.1,101.9l2.2,-12.3l5.6,11.2c.5,.9,8.6,17.4,8.6,39.1c0,9.2,-1.5,19.4,-5.5,29.7c-9.6,24.4,-40.1,63.3,-66.5,94.3c57.9,-19.5,97.7,-74,97.7,-135.8c0,-64,-42.9,-119.2,-102,-137c13.7,10.6,24.2,26.4,31.6,47.6Z" class="g0"/>
<path clip-path="url(#c0)" d="M309.1,271.2c-19.5,-1.7,-35.3,-6,-49.8,-13.6C230.8,242.7,234.4,218.4,236.6,203.9l.2,-1.8c5.6,-38,84.3,-115.3,85.1,-116c9.5,-10.2,5.6,-21.6,2.2,-26.3l-2.1,-3L319,59C289.7,80.2,211,150.4,206.9,209.6C156.6,120.4,193.9,64.9,209.2,43.8c.3,-.4,37,-48.4,98.2,-57.5c1.9,0,12,.5,22.7,8C307.8,1.5,237.3,29.1,211,91.2c-.2,.5,-4.9,12.4,1,21.2l3,4.6l3.1,-4.5c.5,-.7,48.3,-69.9,132,-99c43.1,49.2,3.3,93.7,-38.9,140.8c-10.1,11.4,-20.6,23.1,-29.7,34.7c-8.3,10.6,-11.5,21.8,-9.6,33.4c2.7,16.1,15.2,32.4,37.2,48.8Z" class="g0"/>
</g>
<path d="M624.9,52.9l19,53.4H909.4V52.9Z" class="g1"/>
<path d="M828,43.4h80.9V7.7H840.7Z" class="g2"/>
<image x="31" y="109" width="15" height="14" xlink:href="./shade/2.png"/>
<image x="47" y="109" width="13" height="14" xlink:href="./shade/3.png"/>
<image x="61" y="109" width="14" height="14" xlink:href="./shade/4.png"/>
<image x="75" y="109" width="14" height="14" xlink:href="./shade/5.png"/>
<image x="90" y="109" width="13" height="14" xlink:href="./shade/6.png"/>
<image x="104" y="109" width="13" height="14" xlink:href="./shade/7.png"/>
<image x="118" y="109" width="15" height="14" xlink:href="./shade/8.png"/>
<image x="31" y="125" width="16" height="17" xlink:href="./shade/9.png"/>
<image x="49" y="125" width="17" height="17" xlink:href="./shade/10.png"/>
<image x="68" y="125" width="18" height="17" xlink:href="./shade/11.png"/>
<image x="88" y="125" width="5" height="17" xlink:href="./shade/12.png"/>
<image x="95" y="125" width="18" height="18" xlink:href="./shade/13.png"/>
<image x="115" y="125" width="18" height="17" xlink:href="./shade/14.png"/>
<image x="49" y="146" width="4" height="4" xlink:href="./shade/15.png"/>
<image x="54" y="146" width="3" height="4" xlink:href="./shade/16.png"/>
<image x="58" y="146" width="4" height="4" xlink:href="./shade/17.png"/>
<image x="63" y="146" width="4" height="4" xlink:href="./shade/18.png"/>
<image x="68" y="146" width="4" height="4" xlink:href="./shade/19.png"/>
<image x="73" y="146" width="4" height="4" xlink:href="./shade/20.png"/>
<image x="81" y="146" width="3" height="4" xlink:href="./shade/21.png"/>
<image x="85" y="146" width="4" height="4" xlink:href="./shade/22.png"/>
<image x="90" y="146" width="3" height="4" xlink:href="./shade/23.png"/>
<image x="97" y="146" width="4" height="4" xlink:href="./shade/24.png"/>
<image x="102" y="146" width="3" height="4" xlink:href="./shade/25.png"/>
<image x="106" y="146" width="4" height="4" xlink:href="./shade/26.png"/>
<image x="111" y="146" width="4" height="4" xlink:href="./shade/27.png"/>
<image x="31" y="147" width="18" height="2" xlink:href="./shade/28.png"/>
<image x="115" y="147" width="18" height="2" xlink:href="./shade/29.png"/>
<g clip-path="url(#c0)" opacity="0.5">
<image x="40" y="14" width="84" height="85" xlink:href="./shade/30.png"/>
</g>
<image x="75" y="14" width="49" height="83" xlink:href="./shade/31.png"/>
<image x="76" y="17" width="47" height="78" xlink:href="./shade/32.png"/>
<image x="40" y="15" width="56" height="83" xlink:href="./shade/33.png"/>
<image x="41" y="16" width="54" height="81" xlink:href="./shade/34.png"/>
<g clip-path="url(#c0)" opacity="0.1">
<path d="M102.4,63.9c3.8,-5.4,6.7,-10.8,7.5,-15.1l1.1,-6l2.8,5.4c.2,.6,2.5,5.2,2.5,11.5c0,.3,0,.6,0,.9c1.9,-.7,3.7,-1.6,5.5,-2.5c0,-.6,0,-1.2,0,-1.8C121.8,40.5,112,26,97.5,19.9c2.5,2.8,4.6,6.4,6.1,10.9c.8,2.2,1.2,4.5,1.2,6.8c0,9.3,-6.2,18.2,-12.8,26c3.6,.5,7.1,.6,10.4,.3Z" class="g0"/>
</g>
<image x="59" y="25" width="35" height="36" xlink:href="./shade/35.png"/>
<image x="54" y="17" width="28" height="18" xlink:href="./shade/36.png"/>
<path d="M411,157.8H209.6c-4.2,0,-7.6,-3.4,-7.6,-7.6V126.7c0,-4.2,3.4,-7.6,7.6,-7.6H411c4.2,0,7.6,3.4,7.6,7.6v23.5c0,4.2,-3.4,7.6,-7.6,7.6Z" class="g0"/>
<path d="M411,157.8H209.6c-4.2,0,-7.6,-3.4,-7.6,-7.6V126.7c0,-4.2,3.4,-7.6,7.6,-7.6H411c4.2,0,7.6,3.4,7.6,7.6v23.5c0,4.2,-3.4,7.6,-7.6,7.6Z" class="g3"/>
<path d="M563.8,202.9H250.9c-4.2,0,-7.6,-3.5,-7.6,-7.6V171.7c0,-4.2,3.4,-7.6,7.6,-7.6H563.8c4.2,0,7.6,3.4,7.6,7.6v23.6c0,4.1,-3.4,7.6,-7.6,7.6Z" class="g0"/>
<path d="M563.8,202.9H250.9c-4.2,0,-7.6,-3.5,-7.6,-7.6V171.7c0,-4.2,3.4,-7.6,7.6,-7.6H563.8c4.2,0,7.6,3.4,7.6,7.6v23.6c0,4.1,-3.4,7.6,-7.6,7.6Z" class="g3"/>
<path d="M873.2,202.9H690c-4.2,0,-7.6,-3.5,-7.6,-7.6V171.7c0,-4.2,3.4,-7.6,7.6,-7.6H873.2c4.2,0,7.6,3.4,7.6,7.6v23.6c0,4.1,-3.4,7.6,-7.6,7.6Z" class="g0"/>
<path d="M873.2,202.9H690c-4.2,0,-7.6,-3.5,-7.6,-7.6V171.7c0,-4.2,3.4,-7.6,7.6,-7.6H873.2c4.2,0,7.6,3.4,7.6,7.6v23.6c0,4.1,-3.4,7.6,-7.6,7.6Z" class="g3"/>
<path d="M187.6,157.5H149.1c-3.4,0,-6.1,-2.7,-6.1,-6.1V125.5c0,-3.4,2.7,-6.1,6.1,-6.1h38.5c3.4,0,6.1,2.7,6.1,6.1v25.9c0,3.4,-2.7,6.1,-6.1,6.1Z" class="g4"/>
<path d="M187.6,157.5H149.1c-3.4,0,-6.1,-2.7,-6.1,-6.1V125.5c0,-3.4,2.7,-6.1,6.1,-6.1h38.5c3.4,0,6.1,2.7,6.1,6.1v25.9c0,3.4,-2.7,6.1,-6.1,6.1Z" class="g5"/>
<path d="M120.9,668.3H36.8c-2.8,0,-5.2,-2.3,-5.2,-5.2V635.4c0,-2.9,2.4,-5.2,5.2,-5.2h84.1c2.9,0,5.2,2.3,5.2,5.2v27.7c0,2.9,-2.3,5.2,-5.2,5.2Z" class="g6"/>
<path d="M120.9,668.3H36.8c-2.8,0,-5.2,-2.3,-5.2,-5.2V635.4c0,-2.9,2.4,-5.2,5.2,-5.2h84.1c2.9,0,5.2,2.3,5.2,5.2v27.7c0,2.9,-2.3,5.2,-5.2,5.2Z" class="g3"/>
<path d="M704.8,668.3H597.7c-2.9,0,-5.2,-2.3,-5.2,-5.2V635.4c0,-2.9,2.3,-5.2,5.2,-5.2H704.8c2.9,0,5.2,2.3,5.2,5.2v27.7c0,2.9,-2.3,5.2,-5.2,5.2Z" class="g6"/>
<path d="M704.8,668.3H597.7c-2.9,0,-5.2,-2.3,-5.2,-5.2V635.4c0,-2.9,2.3,-5.2,5.2,-5.2H704.8c2.9,0,5.2,2.3,5.2,5.2v27.7c0,2.9,-2.3,5.2,-5.2,5.2Z" class="g3"/>
<path d="M232.6,202.2H149.1c-3.4,0,-6.1,-2.7,-6.1,-6.1V170.2c0,-3.4,2.7,-6.1,6.1,-6.1h83.5c3.4,0,6.2,2.7,6.2,6.1v25.9c0,3.4,-2.8,6.1,-6.2,6.1Z" class="g4"/>
<path d="M232.6,202.2H149.1c-3.4,0,-6.1,-2.7,-6.1,-6.1V170.2c0,-3.4,2.7,-6.1,6.1,-6.1h83.5c3.4,0,6.2,2.7,6.2,6.1v25.9c0,3.4,-2.8,6.1,-6.2,6.1Z" class="g5"/>
<path d="M668,202.2H584.4c-3.4,0,-6.1,-2.7,-6.1,-6.1V170.2c0,-3.4,2.7,-6.1,6.1,-6.1H668c3.3,0,6.1,2.7,6.1,6.1v25.9c0,3.4,-2.8,6.1,-6.1,6.1Z" class="g4"/>
<path d="M668,202.2H584.4c-3.4,0,-6.1,-2.7,-6.1,-6.1V170.2c0,-3.4,2.7,-6.1,6.1,-6.1H668c3.3,0,6.1,2.7,6.1,6.1v25.9c0,3.4,-2.8,6.1,-6.1,6.1Z" class="g5"/>
<path d="M377.4,248.1H250.9c-4.2,0,-7.6,-3.4,-7.6,-7.6V216.9c0,-4.2,3.4,-7.6,7.6,-7.6H377.4c4.2,0,7.6,3.4,7.6,7.6v23.6c0,4.2,-3.4,7.6,-7.6,7.6Z" class="g0"/>
<path d="M377.4,248.1H250.9c-4.2,0,-7.6,-3.4,-7.6,-7.6V216.9c0,-4.2,3.4,-7.6,7.6,-7.6H377.4c4.2,0,7.6,3.4,7.6,7.6v23.6c0,4.2,-3.4,7.6,-7.6,7.6Z" class="g3"/>
<path d="M625.3,248.1H498.9c-4.2,0,-7.6,-3.4,-7.6,-7.6V216.9c0,-4.2,3.4,-7.6,7.6,-7.6H625.3c4.2,0,7.6,3.4,7.6,7.6v23.6c0,4.2,-3.4,7.6,-7.6,7.6Z" class="g0"/>
<path d="M625.3,248.1H498.9c-4.2,0,-7.6,-3.4,-7.6,-7.6V216.9c0,-4.2,3.4,-7.6,7.6,-7.6H625.3c4.2,0,7.6,3.4,7.6,7.6v23.6c0,4.2,-3.4,7.6,-7.6,7.6Z" class="g3"/>
<path d="M873.2,248.1H746.8c-4.2,0,-7.6,-3.4,-7.6,-7.6V216.9c0,-4.2,3.4,-7.6,7.6,-7.6H873.2c4.2,0,7.6,3.4,7.6,7.6v23.6c0,4.2,-3.4,7.6,-7.6,7.6Z" class="g0"/>
<path d="M873.2,248.1H746.8c-4.2,0,-7.6,-3.4,-7.6,-7.6V216.9c0,-4.2,3.4,-7.6,7.6,-7.6H873.2c4.2,0,7.6,3.4,7.6,7.6v23.6c0,4.2,-3.4,7.6,-7.6,7.6Z" class="g3"/>
<path d="M232.6,247.5H149.1c-3.4,0,-6.1,-2.8,-6.1,-6.2V215.4c0,-3.3,2.7,-6.1,6.1,-6.1h83.5c3.4,0,6.2,2.8,6.2,6.1v25.9c0,3.4,-2.8,6.2,-6.2,6.2Z" class="g4"/>
<path d="M232.6,247.5H149.1c-3.4,0,-6.1,-2.8,-6.1,-6.2V215.4c0,-3.3,2.7,-6.1,6.1,-6.1h83.5c3.4,0,6.2,2.8,6.2,6.1v25.9c0,3.4,-2.8,6.2,-6.2,6.2Z" class="g5"/>
<path d="M480.5,247.5H396.9c-3.3,0,-6.1,-2.8,-6.1,-6.2V215.4c0,-3.3,2.8,-6.1,6.1,-6.1h83.6c3.4,0,6.1,2.8,6.1,6.1v25.9c0,3.4,-2.7,6.2,-6.1,6.2Z" class="g4"/>
<path d="M480.5,247.5H396.9c-3.3,0,-6.1,-2.8,-6.1,-6.2V215.4c0,-3.3,2.8,-6.1,6.1,-6.1h83.6c3.4,0,6.1,2.8,6.1,6.1v25.9c0,3.4,-2.7,6.2,-6.1,6.2Z" class="g5"/>
<path d="M728.4,247.5H644.8c-3.4,0,-6.1,-2.8,-6.1,-6.2V215.4c0,-3.3,2.7,-6.1,6.1,-6.1h83.6c3.4,0,6.1,2.8,6.1,6.1v25.9c0,3.4,-2.7,6.2,-6.1,6.2Z" class="g4"/>
<path d="M728.4,247.5H644.8c-3.4,0,-6.1,-2.8,-6.1,-6.2V215.4c0,-3.3,2.7,-6.1,6.1,-6.1h83.6c3.4,0,6.1,2.8,6.1,6.1v25.9c0,3.4,-2.7,6.2,-6.1,6.2Z" class="g5"/>
<path d="M230.8,329.5H31.5c-2,0,-3.7,-1.6,-3.7,-3.7v-31c0,-2.1,1.7,-3.7,3.7,-3.7H230.8c2,0,3.7,1.6,3.7,3.7v31c0,2.1,-1.7,3.7,-3.7,3.7Z" class="g7"/>
<path d="M230.8,329.5H31.5c-2,0,-3.7,-1.6,-3.7,-3.7v-31c0,-2.1,1.7,-3.7,3.7,-3.7H230.8c2,0,3.7,1.6,3.7,3.7v31c0,2.1,-1.7,3.7,-3.7,3.7Z" class="g8"/>
<path d="M54,320.9H38.8c-1.7,0,-3.1,-1.3,-3.1,-3V302.7c0,-1.7,1.4,-3,3.1,-3H54c1.6,0,3,1.3,3,3v15.2c0,1.7,-1.4,3,-3,3Z" class="g0"/>
<image clip-path="url(#c0)" preserveAspectRatio="none" x="35" y="301" width="22" height="21" opacity="0.30000302" xlink:href="img/1.png"/>
<path d="M446.5,329.5H247.3c-2.1,0,-3.8,-1.6,-3.8,-3.7v-31c0,-2.1,1.7,-3.7,3.8,-3.7H446.5c2,0,3.7,1.6,3.7,3.7v31c0,2.1,-1.7,3.7,-3.7,3.7Z" class="g7"/>
<path d="M446.5,329.5H247.3c-2.1,0,-3.8,-1.6,-3.8,-3.7v-31c0,-2.1,1.7,-3.7,3.8,-3.7H446.5c2,0,3.7,1.6,3.7,3.7v31c0,2.1,-1.7,3.7,-3.7,3.7Z" class="g8"/>
<path d="M269.7,320.9H254.5c-1.7,0,-3,-1.3,-3,-3V302.7c0,-1.7,1.3,-3,3,-3h15.2c1.7,0,3,1.3,3,3v15.2c0,1.7,-1.3,3,-3,3Z" class="g0"/>
<image clip-path="url(#c0)" preserveAspectRatio="none" x="251" y="301" width="21" height="21" opacity="0.30000302" xlink:href="img/2.png"/>
<path d="M662.2,329.5H463c-2.1,0,-3.7,-1.6,-3.7,-3.7v-31c0,-2.1,1.6,-3.7,3.7,-3.7H662.2c2,0,3.7,1.6,3.7,3.7v31c0,2.1,-1.7,3.7,-3.7,3.7Z" class="g7"/>
<path d="M662.2,329.5H463c-2.1,0,-3.7,-1.6,-3.7,-3.7v-31c0,-2.1,1.6,-3.7,3.7,-3.7H662.2c2,0,3.7,1.6,3.7,3.7v31c0,2.1,-1.7,3.7,-3.7,3.7Z" class="g8"/>
<path d="M485.4,320.9H470.2c-1.6,0,-3,-1.3,-3,-3V302.7c0,-1.7,1.4,-3,3,-3h15.2c1.7,0,3,1.3,3,3v15.2c0,1.7,-1.3,3,-3,3Z" class="g0"/>
<image clip-path="url(#c0)" preserveAspectRatio="none" x="466" y="301" width="21" height="21" opacity="0.30000302" xlink:href="img/3.png"/>
<path d="M877.9,329.5H678.7c-2.1,0,-3.7,-1.6,-3.7,-3.7v-31c0,-2.1,1.6,-3.7,3.7,-3.7H877.9c2.1,0,3.7,1.6,3.7,3.7v31c0,2.1,-1.6,3.7,-3.7,3.7Z" class="g7"/>
<path d="M877.9,329.5H678.7c-2.1,0,-3.7,-1.6,-3.7,-3.7v-31c0,-2.1,1.6,-3.7,3.7,-3.7H877.9c2.1,0,3.7,1.6,3.7,3.7v31c0,2.1,-1.6,3.7,-3.7,3.7Z" class="g8"/>
<path d="M701.1,320.9H686c-1.7,0,-3.1,-1.3,-3.1,-3V302.7c0,-1.7,1.4,-3,3.1,-3h15.1c1.7,0,3.1,1.3,3.1,3v15.2c0,1.7,-1.4,3,-3.1,3Z" class="g0"/>
<image clip-path="url(#c0)" preserveAspectRatio="none" x="681" y="301" width="22" height="21" opacity="0.30000302" xlink:href="img/4.png"/>
<path d="M229.9,416.1H30.7c-2.1,0,-3.7,-1.7,-3.7,-3.7V381.3c0,-2,1.6,-3.7,3.7,-3.7H229.9c2,0,3.7,1.7,3.7,3.7v31.1c0,2,-1.7,3.7,-3.7,3.7Z" class="g7"/>
<path d="M229.9,416.1H30.7c-2.1,0,-3.7,-1.7,-3.7,-3.7V381.3c0,-2,1.6,-3.7,3.7,-3.7H229.9c2,0,3.7,1.7,3.7,3.7v31.1c0,2,-1.7,3.7,-3.7,3.7Z" class="g8"/>
<path d="M53.1,407.5H37.9c-1.6,0,-3,-1.4,-3,-3.1V389.3c0,-1.7,1.4,-3.1,3,-3.1H53.1c1.7,0,3.1,1.4,3.1,3.1v15.1c0,1.7,-1.4,3.1,-3.1,3.1Z" class="g0"/>
<image clip-path="url(#c0)" preserveAspectRatio="none" x="34" y="386" width="21" height="22" opacity="0.30000302" xlink:href="img/5.png"/>
<path d="M445.6,416.1H246.4c-2.1,0,-3.7,-1.7,-3.7,-3.7V381.3c0,-2,1.6,-3.7,3.7,-3.7H445.6c2.1,0,3.7,1.7,3.7,3.7v31.1c0,2,-1.6,3.7,-3.7,3.7Z" class="g7"/>
<path d="M445.6,416.1H246.4c-2.1,0,-3.7,-1.7,-3.7,-3.7V381.3c0,-2,1.6,-3.7,3.7,-3.7H445.6c2.1,0,3.7,1.7,3.7,3.7v31.1c0,2,-1.6,3.7,-3.7,3.7Z" class="g8"/>
<path d="M268.8,407.5H253.7c-1.7,0,-3.1,-1.4,-3.1,-3.1V389.3c0,-1.7,1.4,-3.1,3.1,-3.1h15.1c1.7,0,3.1,1.4,3.1,3.1v15.1c0,1.7,-1.4,3.1,-3.1,3.1Z" class="g0"/>
<image clip-path="url(#c0)" preserveAspectRatio="none" x="251" y="386" width="19" height="22" opacity="0.30000302" xlink:href="img/6.png"/>
<path d="M661.3,416.1H462.1c-2,0,-3.7,-1.7,-3.7,-3.7V381.3c0,-2,1.7,-3.7,3.7,-3.7H661.3c2.1,0,3.7,1.7,3.7,3.7v31.1c0,2,-1.6,3.7,-3.7,3.7Z" class="g7"/>
<path d="M661.3,416.1H462.1c-2,0,-3.7,-1.7,-3.7,-3.7V381.3c0,-2,1.7,-3.7,3.7,-3.7H661.3c2.1,0,3.7,1.7,3.7,3.7v31.1c0,2,-1.6,3.7,-3.7,3.7Z" class="g8"/>
<path d="M484.5,407.5H469.4c-1.7,0,-3.1,-1.4,-3.1,-3.1V389.3c0,-1.7,1.4,-3.1,3.1,-3.1h15.1c1.7,0,3.1,1.4,3.1,3.1v15.1c0,1.7,-1.4,3.1,-3.1,3.1Z" class="g0"/>
<image clip-path="url(#c0)" preserveAspectRatio="none" x="466" y="386" width="21" height="22" opacity="0.30000302" xlink:href="img/7.png"/>
<path d="M877.1,416.1H677.8c-2,0,-3.7,-1.7,-3.7,-3.7V381.3c0,-2,1.7,-3.7,3.7,-3.7H877.1c2,0,3.7,1.7,3.7,3.7v31.1c0,2,-1.7,3.7,-3.7,3.7Z" class="g7"/>
<path d="M877.1,416.1H677.8c-2,0,-3.7,-1.7,-3.7,-3.7V381.3c0,-2,1.7,-3.7,3.7,-3.7H877.1c2,0,3.7,1.7,3.7,3.7v31.1c0,2,-1.7,3.7,-3.7,3.7Z" class="g8"/>
<path d="M191.5,535.7H34.7c-2,0,-3.7,-1.6,-3.7,-3.7V501c0,-2.1,1.7,-3.7,3.7,-3.7H191.5c2.1,0,3.7,1.6,3.7,3.7v31c0,2.1,-1.6,3.7,-3.7,3.7Z" class="g9"/>
<path d="M191.5,535.7H34.7c-2,0,-3.7,-1.6,-3.7,-3.7V501c0,-2.1,1.7,-3.7,3.7,-3.7H191.5c2.1,0,3.7,1.6,3.7,3.7v31c0,2.1,-1.6,3.7,-3.7,3.7Z" class="g3"/>
<path d="M362.9,535.7H206.1c-2,0,-3.7,-1.6,-3.7,-3.7V501c0,-2.1,1.7,-3.7,3.7,-3.7H362.9c2.1,0,3.7,1.6,3.7,3.7v31c0,2.1,-1.6,3.7,-3.7,3.7Z" class="g9"/>
<path d="M362.9,535.7H206.1c-2,0,-3.7,-1.6,-3.7,-3.7V501c0,-2.1,1.7,-3.7,3.7,-3.7H362.9c2.1,0,3.7,1.6,3.7,3.7v31c0,2.1,-1.6,3.7,-3.7,3.7Z" class="g3"/>
<path d="M534.3,535.7H377.5c-2,0,-3.7,-1.6,-3.7,-3.7V501c0,-2.1,1.7,-3.7,3.7,-3.7H534.3c2.1,0,3.7,1.6,3.7,3.7v31c0,2.1,-1.6,3.7,-3.7,3.7Z" class="g9"/>
<path d="M534.3,535.7H377.5c-2,0,-3.7,-1.6,-3.7,-3.7V501c0,-2.1,1.7,-3.7,3.7,-3.7H534.3c2.1,0,3.7,1.6,3.7,3.7v31c0,2.1,-1.6,3.7,-3.7,3.7Z" class="g3"/>
<path d="M705.7,535.7H548.9c-2,0,-3.7,-1.6,-3.7,-3.7V501c0,-2.1,1.7,-3.7,3.7,-3.7H705.7c2.1,0,3.7,1.6,3.7,3.7v31c0,2.1,-1.6,3.7,-3.7,3.7Z" class="g9"/>
<path d="M705.7,535.7H548.9c-2,0,-3.7,-1.6,-3.7,-3.7V501c0,-2.1,1.7,-3.7,3.7,-3.7H705.7c2.1,0,3.7,1.6,3.7,3.7v31c0,2.1,-1.6,3.7,-3.7,3.7Z" class="g3"/>
<path d="M877.1,535.7H720.3c-2.1,0,-3.7,-1.6,-3.7,-3.7V501c0,-2.1,1.6,-3.7,3.7,-3.7H877.1c2,0,3.7,1.6,3.7,3.7v31c0,2.1,-1.7,3.7,-3.7,3.7Z" class="g9"/>
<path d="M877.1,535.7H720.3c-2.1,0,-3.7,-1.6,-3.7,-3.7V501c0,-2.1,1.6,-3.7,3.7,-3.7H877.1c2,0,3.7,1.6,3.7,3.7v31c0,2.1,-1.7,3.7,-3.7,3.7Z" class="g3"/>
<path d="M191.5,580.9H34.8c-2.1,0,-3.7,-1.6,-3.7,-3.7v-31c0,-2.1,1.6,-3.8,3.7,-3.8H191.5c2.1,0,3.7,1.7,3.7,3.8v31c0,2.1,-1.6,3.7,-3.7,3.7Z" class="g9"/>
<path d="M191.5,580.9H34.8c-2.1,0,-3.7,-1.6,-3.7,-3.7v-31c0,-2.1,1.6,-3.8,3.7,-3.8H191.5c2.1,0,3.7,1.7,3.7,3.8v31c0,2.1,-1.6,3.7,-3.7,3.7Z" class="g3"/>
<path d="M362.9,580.9H206.2c-2.1,0,-3.7,-1.6,-3.7,-3.7v-31c0,-2.1,1.6,-3.8,3.7,-3.8H362.9c2.1,0,3.7,1.7,3.7,3.8v31c0,2.1,-1.6,3.7,-3.7,3.7Z" class="g9"/>
<path d="M362.9,580.9H206.2c-2.1,0,-3.7,-1.6,-3.7,-3.7v-31c0,-2.1,1.6,-3.8,3.7,-3.8H362.9c2.1,0,3.7,1.7,3.7,3.8v31c0,2.1,-1.6,3.7,-3.7,3.7Z" class="g3"/>
<path d="M534.3,580.9H377.6c-2.1,0,-3.7,-1.6,-3.7,-3.7v-31c0,-2.1,1.6,-3.8,3.7,-3.8H534.3c2.1,0,3.7,1.7,3.7,3.8v31c0,2.1,-1.6,3.7,-3.7,3.7Z" class="g9"/>
<path d="M534.3,580.9H377.6c-2.1,0,-3.7,-1.6,-3.7,-3.7v-31c0,-2.1,1.6,-3.8,3.7,-3.8H534.3c2.1,0,3.7,1.7,3.7,3.8v31c0,2.1,-1.6,3.7,-3.7,3.7Z" class="g3"/>
<path d="M877.1,580.9H549c-2.1,0,-3.7,-1.6,-3.7,-3.7v-31c0,-2.1,1.6,-3.8,3.7,-3.8H877.1c2,0,3.7,1.7,3.7,3.8v31c0,2.1,-1.7,3.7,-3.7,3.7Z" class="g9"/>
<path d="M877.1,580.9H549c-2.1,0,-3.7,-1.6,-3.7,-3.7v-31c0,-2.1,1.6,-3.8,3.7,-3.8H877.1c2,0,3.7,1.7,3.7,3.8v31c0,2.1,-1.7,3.7,-3.7,3.7Z" class="g3"/>
<path d="M700.3,407.5H685.1c-1.7,0,-3.1,-1.4,-3.1,-3.1V389.3c0,-1.7,1.4,-3.1,3.1,-3.1h15.2c1.6,0,3,1.4,3,3.1v15.1c0,1.7,-1.4,3.1,-3,3.1Z" class="g0"/>
<image clip-path="url(#c0)" preserveAspectRatio="none" x="681" y="386" width="22" height="22" opacity="0.30000302" xlink:href="img/8.png"/>
<path d="M229.9,459.1H30.7c-2.1,0,-3.7,-1.7,-3.7,-3.7V424.3c0,-2,1.6,-3.7,3.7,-3.7H229.9c2,0,3.7,1.7,3.7,3.7v31.1c0,2,-1.7,3.7,-3.7,3.7Z" class="g7"/>
<path d="M229.9,459.1H30.7c-2.1,0,-3.7,-1.7,-3.7,-3.7V424.3c0,-2,1.6,-3.7,3.7,-3.7H229.9c2,0,3.7,1.7,3.7,3.7v31.1c0,2,-1.7,3.7,-3.7,3.7Z" class="g8"/>
<path d="M53.1,450.5H37.9c-1.6,0,-3,-1.4,-3,-3.1V432.3c0,-1.7,1.4,-3.1,3,-3.1H53.1c1.7,0,3.1,1.4,3.1,3.1v15.1c0,1.7,-1.4,3.1,-3.1,3.1Z" class="g0"/>
<image clip-path="url(#c0)" preserveAspectRatio="none" x="34" y="431" width="21" height="20" opacity="0.30000302" xlink:href="img/9.png"/>
<path d="M56.2,527.1H41.1c-1.7,0,-3.1,-1.3,-3.1,-3V508.9c0,-1.7,1.4,-3,3.1,-3H56.2c1.7,0,3.1,1.3,3.1,3v15.2c0,1.7,-1.4,3,-3.1,3Z" class="g0"/>
<image clip-path="url(#c0)" preserveAspectRatio="none" x="37" y="507" width="21" height="21" opacity="0.30000302" xlink:href="img/10.png"/>
<path d="M228.9,527.1H213.8c-1.7,0,-3.1,-1.3,-3.1,-3V508.9c0,-1.7,1.4,-3,3.1,-3h15.1c1.7,0,3.1,1.3,3.1,3v15.2c0,1.7,-1.4,3,-3.1,3Z" class="g0"/>
<image clip-path="url(#c0)" preserveAspectRatio="none" x="209" y="507" width="22" height="21" opacity="0.30000302" xlink:href="img/11.png"/>
<path d="M401.6,527.1H386.4c-1.7,0,-3,-1.3,-3,-3V508.9c0,-1.7,1.3,-3,3,-3h15.2c1.7,0,3,1.3,3,3v15.2c0,1.7,-1.3,3,-3,3Z" class="g0"/>
<image clip-path="url(#c0)" preserveAspectRatio="none" x="382" y="507" width="21" height="21" opacity="0.30000302" xlink:href="img/12.png"/>
<path d="M276.8,668.5H138.9c-2.1,0,-3.7,-1.6,-3.7,-3.7v-31c0,-2.1,1.6,-3.8,3.7,-3.8H276.8c2.1,0,3.7,1.7,3.7,3.8v31c0,2.1,-1.6,3.7,-3.7,3.7Z" class="g9"/>
<path d="M276.8,668.5H138.9c-2.1,0,-3.7,-1.6,-3.7,-3.7v-31c0,-2.1,1.6,-3.8,3.7,-3.8H276.8c2.1,0,3.7,1.7,3.7,3.8v31c0,2.1,-1.6,3.7,-3.7,3.7Z" class="g3"/>
<path d="M428.6,668.5h-138c-2,0,-3.7,-1.6,-3.7,-3.7v-31c0,-2.1,1.7,-3.8,3.7,-3.8h138c2.1,0,3.7,1.7,3.7,3.8v31c0,2.1,-1.6,3.7,-3.7,3.7Z" class="g9"/>
<path d="M428.6,668.5h-138c-2,0,-3.7,-1.6,-3.7,-3.7v-31c0,-2.1,1.7,-3.8,3.7,-3.8h138c2.1,0,3.7,1.7,3.7,3.8v31c0,2.1,-1.6,3.7,-3.7,3.7Z" class="g3"/>
<path d="M580.4,668.5h-138c-2,0,-3.7,-1.6,-3.7,-3.7v-31c0,-2.1,1.7,-3.8,3.7,-3.8h138c2,0,3.7,1.7,3.7,3.8v31c0,2.1,-1.7,3.7,-3.7,3.7Z" class="g9"/>
<path d="M580.4,668.5h-138c-2,0,-3.7,-1.6,-3.7,-3.7v-31c0,-2.1,1.7,-3.8,3.7,-3.8h138c2,0,3.7,1.7,3.7,3.8v31c0,2.1,-1.7,3.7,-3.7,3.7Z" class="g3"/>
<path d="M877.1,668.5H718.2c-2.1,0,-3.7,-1.6,-3.7,-3.7v-31c0,-2.1,1.6,-3.8,3.7,-3.8H877.1c2,0,3.7,1.7,3.7,3.8v31c0,2.1,-1.7,3.7,-3.7,3.7Z" class="g0"/>
<path d="M877.1,668.5H718.2c-2.1,0,-3.7,-1.6,-3.7,-3.7v-31c0,-2.1,1.6,-3.8,3.7,-3.8H877.1c2,0,3.7,1.7,3.7,3.8v31c0,2.1,-1.7,3.7,-3.7,3.7Z" class="g3"/>
<path d="M160.3,659.9H145.2c-1.7,0,-3.1,-1.4,-3.1,-3V641.7c0,-1.7,1.4,-3.1,3.1,-3.1h15.1c1.7,0,3.1,1.4,3.1,3.1v15.2c0,1.6,-1.4,3,-3.1,3Z" class="g0"/>
<image clip-path="url(#c0)" preserveAspectRatio="none" x="142" y="640" width="20" height="21" opacity="0.30000302" xlink:href="img/13.png"/>
<path d="M313.2,659.9H298c-1.7,0,-3,-1.4,-3,-3V641.7c0,-1.7,1.3,-3.1,3,-3.1h15.2c1.6,0,3,1.4,3,3.1v15.2c0,1.6,-1.4,3,-3,3Z" class="g0"/>
<image clip-path="url(#c0)" preserveAspectRatio="none" x="295" y="640" width="20" height="21" opacity="0.30000302" xlink:href="img/14.png"/>
<path d="M462.9,659.9H447.8c-1.7,0,-3.1,-1.4,-3.1,-3V641.7c0,-1.7,1.4,-3.1,3.1,-3.1h15.1c1.7,0,3.1,1.4,3.1,3.1v15.2c0,1.6,-1.4,3,-3.1,3Z" class="g0"/>
<image clip-path="url(#c0)" preserveAspectRatio="none" x="445" y="640" width="21" height="21" opacity="0.30000302" xlink:href="img/15.png"/>
<path d="M574.3,527.1H559.1c-1.7,0,-3.1,-1.3,-3.1,-3V508.9c0,-1.7,1.4,-3,3.1,-3h15.2c1.6,0,3,1.3,3,3v15.2c0,1.7,-1.4,3,-3,3Z" class="g0"/>
<image clip-path="url(#c0)" preserveAspectRatio="none" x="555" y="507" width="21" height="21" opacity="0.30000302" xlink:href="img/16.png"/>
<path d="M56.2,573H41.1C39.4,573,38,571.6,38,569.9V554.8c0,-1.7,1.4,-3.1,3.1,-3.1H56.2c1.7,0,3.1,1.4,3.1,3.1v15.1c0,1.7,-1.4,3.1,-3.1,3.1Z" class="g0"/>
<image clip-path="url(#c0)" preserveAspectRatio="none" x="37" y="553" width="21" height="21" opacity="0.30000302" xlink:href="img/17.png"/>
<path d="M228.9,573H213.8c-1.7,0,-3.1,-1.4,-3.1,-3.1V554.8c0,-1.7,1.4,-3.1,3.1,-3.1h15.1c1.7,0,3.1,1.4,3.1,3.1v15.1c0,1.7,-1.4,3.1,-3.1,3.1Z" class="g0"/>
<image clip-path="url(#c0)" preserveAspectRatio="none" x="209" y="553" width="22" height="21" opacity="0.30000302" xlink:href="img/18.png"/>
<path d="M401.6,573H386.4c-1.7,0,-3,-1.4,-3,-3.1V554.8c0,-1.7,1.3,-3.1,3,-3.1h15.2c1.7,0,3,1.4,3,3.1v15.1c0,1.7,-1.3,3.1,-3,3.1Z" class="g0"/>
<image clip-path="url(#c0)" preserveAspectRatio="none" x="382" y="553" width="21" height="21" opacity="0.30000302" xlink:href="img/19.png"/>
<path d="M574.3,573H559.1c-1.7,0,-3.1,-1.4,-3.1,-3.1V554.8c0,-1.7,1.4,-3.1,3.1,-3.1h15.2c1.6,0,3,1.4,3,3.1v15.1c0,1.7,-1.4,3.1,-3,3.1Z" class="g0"/>
<image clip-path="url(#c0)" preserveAspectRatio="none" x="555" y="553" width="21" height="21" opacity="0.30000302" xlink:href="img/20.png"/>
<path d="M746.9,527.1H731.8c-1.7,0,-3.1,-1.3,-3.1,-3V508.9c0,-1.7,1.4,-3,3.1,-3h15.1c1.7,0,3.1,1.3,3.1,3v15.2c0,1.7,-1.4,3,-3.1,3Z" class="g0"/>
<image clip-path="url(#c0)" preserveAspectRatio="none" x="727" y="507" width="22" height="21" opacity="0.30000302" xlink:href="img/21.png"/>
<path d="M445.6,459.1H246.4c-2.1,0,-3.7,-1.7,-3.7,-3.7V424.3c0,-2,1.6,-3.7,3.7,-3.7H445.6c2.1,0,3.7,1.7,3.7,3.7v31.1c0,2,-1.6,3.7,-3.7,3.7Z" class="g7"/>
<path d="M445.6,459.1H246.4c-2.1,0,-3.7,-1.7,-3.7,-3.7V424.3c0,-2,1.6,-3.7,3.7,-3.7H445.6c2.1,0,3.7,1.7,3.7,3.7v31.1c0,2,-1.6,3.7,-3.7,3.7Z" class="g8"/>
<path d="M268.8,450.5H253.7c-1.7,0,-3.1,-1.4,-3.1,-3.1V432.3c0,-1.7,1.4,-3.1,3.1,-3.1h15.1c1.7,0,3.1,1.4,3.1,3.1v15.1c0,1.7,-1.4,3.1,-3.1,3.1Z" class="g0"/>
<image clip-path="url(#c0)" preserveAspectRatio="none" x="251" y="431" width="19" height="20" opacity="0.30000302" xlink:href="img/22.png"/>
<path d="M661.3,459.1H462.1c-2,0,-3.7,-1.7,-3.7,-3.7V424.3c0,-2,1.7,-3.7,3.7,-3.7H661.3c2.1,0,3.7,1.7,3.7,3.7v31.1c0,2,-1.6,3.7,-3.7,3.7Z" class="g7"/>
<path d="M661.3,459.1H462.1c-2,0,-3.7,-1.7,-3.7,-3.7V424.3c0,-2,1.7,-3.7,3.7,-3.7H661.3c2.1,0,3.7,1.7,3.7,3.7v31.1c0,2,-1.6,3.7,-3.7,3.7Z" class="g8"/>
<path d="M484.5,450.5H469.4c-1.7,0,-3.1,-1.4,-3.1,-3.1V432.3c0,-1.7,1.4,-3.1,3.1,-3.1h15.1c1.7,0,3.1,1.4,3.1,3.1v15.1c0,1.7,-1.4,3.1,-3.1,3.1Z" class="g0"/>
<image clip-path="url(#c0)" preserveAspectRatio="none" x="466" y="431" width="21" height="20" opacity="0.30000302" xlink:href="img/23.png"/>
<path d="M877.1,459.1H677.8c-2,0,-3.7,-1.7,-3.7,-3.7V424.3c0,-2,1.7,-3.7,3.7,-3.7H877.1c2,0,3.7,1.7,3.7,3.7v31.1c0,2,-1.7,3.7,-3.7,3.7Z" class="g7"/>
<path d="M877.1,459.1H677.8c-2,0,-3.7,-1.7,-3.7,-3.7V424.3c0,-2,1.7,-3.7,3.7,-3.7H877.1c2,0,3.7,1.7,3.7,3.7v31.1c0,2,-1.7,3.7,-3.7,3.7Z" class="g8"/>
<path d="M700.3,450.5H685.1c-1.7,0,-3.1,-1.4,-3.1,-3.1V432.3c0,-1.7,1.4,-3.1,3.1,-3.1h15.2c1.6,0,3,1.4,3,3.1v15.1c0,1.7,-1.4,3.1,-3,3.1Z" class="g0"/>
<image clip-path="url(#c0)" preserveAspectRatio="none" x="681" y="431" width="22" height="20" opacity="0.30000302" xlink:href="img/24.png"/>
<path d="M644.9,157.8H588.1c-3.4,0,-6.1,-2.8,-6.1,-6.2V125.5c0,-3.4,2.7,-6.1,6.1,-6.1h56.8c3.4,0,6.1,2.7,6.1,6.1v26.1c0,3.4,-2.7,6.2,-6.1,6.2Z" class="g9"/>
<path d="M644.9,157.8H588.1c-3.4,0,-6.1,-2.8,-6.1,-6.2V125.5c0,-3.4,2.7,-6.1,6.1,-6.1h56.8c3.4,0,6.1,2.7,6.1,6.1v26.1c0,3.4,-2.7,6.2,-6.1,6.2Z" class="g3"/>
<path d="M608.5,149.5H592.6c-1.7,0,-3.1,-1.4,-3.1,-3.1V130.7c0,-1.7,1.4,-3,3.1,-3h15.9c1.7,0,3,1.3,3,3v15.7c0,1.7,-1.3,3.1,-3,3.1Z" class="g0"/>
<image clip-path="url(#c0)" preserveAspectRatio="none" x="588" y="128" width="23" height="22" opacity="0.30000302" xlink:href="img/25.png"/>
<path d="M568.8,157.8H511.5c-3.4,0,-6.1,-2.8,-6.1,-6.2V125.5c0,-3.4,2.7,-6.1,6.1,-6.1h57.3c3.4,0,6.1,2.7,6.1,6.1v26.1c0,3.4,-2.7,6.2,-6.1,6.2Z" class="g9"/>
<path d="M568.8,157.8H511.5c-3.4,0,-6.1,-2.8,-6.1,-6.2V125.5c0,-3.4,2.7,-6.1,6.1,-6.1h57.3c3.4,0,6.1,2.7,6.1,6.1v26.1c0,3.4,-2.7,6.2,-6.1,6.2Z" class="g3"/>
<path d="M531.9,149.5H516c-1.7,0,-3.1,-1.4,-3.1,-3.1V130.7c0,-1.7,1.4,-3,3.1,-3h15.9c1.7,0,3.1,1.3,3.1,3v15.7c0,1.7,-1.4,3.1,-3.1,3.1Z" class="g0"/>
<image clip-path="url(#c0)" preserveAspectRatio="none" x="512" y="128" width="23" height="22" opacity="0.30000302" xlink:href="img/26.png"/>
<path d="M720.9,157.8H665.6c-3.4,0,-6.1,-2.8,-6.1,-6.2V125.5c0,-3.4,2.7,-6.1,6.1,-6.1h55.3c3.4,0,6.1,2.7,6.1,6.1v26.1c0,3.4,-2.7,6.2,-6.1,6.2Z" class="g9"/>
<path d="M720.9,157.8H665.6c-3.4,0,-6.1,-2.8,-6.1,-6.2V125.5c0,-3.4,2.7,-6.1,6.1,-6.1h55.3c3.4,0,6.1,2.7,6.1,6.1v26.1c0,3.4,-2.7,6.2,-6.1,6.2Z" class="g3"/>
<path d="M686,149.5H670.1c-1.7,0,-3,-1.4,-3,-3.1V130.7c0,-1.7,1.3,-3,3,-3H686c1.7,0,3.1,1.3,3.1,3v15.7c0,1.7,-1.4,3.1,-3.1,3.1Z" class="g0"/>
<image clip-path="url(#c0)" preserveAspectRatio="none" x="666" y="128" width="23" height="22" opacity="0.30000302" xlink:href="img/27.png"/>
<path d="M796.9,157.8H741.6c-3.4,0,-6.1,-2.8,-6.1,-6.2V125.5c0,-3.4,2.7,-6.1,6.1,-6.1h55.3c3.3,0,6.1,2.7,6.1,6.1v26.1c0,3.4,-2.8,6.2,-6.1,6.2Z" class="g9"/>
<path d="M796.9,157.8H741.6c-3.4,0,-6.1,-2.8,-6.1,-6.2V125.5c0,-3.4,2.7,-6.1,6.1,-6.1h55.3c3.3,0,6.1,2.7,6.1,6.1v26.1c0,3.4,-2.8,6.2,-6.1,6.2Z" class="g3"/>
<path d="M762,149.5H746.1c-1.7,0,-3.1,-1.4,-3.1,-3.1V130.7c0,-1.7,1.4,-3,3.1,-3H762c1.7,0,3,1.3,3,3v15.7c0,1.7,-1.3,3.1,-3,3.1Z" class="g0"/>
<image clip-path="url(#c0)" preserveAspectRatio="none" x="743" y="128" width="21" height="22" opacity="0.30000302" xlink:href="img/28.png"/>
<path d="M874.7,157.8H818.3c-3.4,0,-6.1,-2.8,-6.1,-6.2V125.5c0,-3.4,2.7,-6.1,6.1,-6.1h56.4c3.3,0,6.1,2.7,6.1,6.1v26.1c0,3.4,-2.8,6.2,-6.1,6.2Z" class="g9"/>
<path d="M874.7,157.8H818.3c-3.4,0,-6.1,-2.8,-6.1,-6.2V125.5c0,-3.4,2.7,-6.1,6.1,-6.1h56.4c3.3,0,6.1,2.7,6.1,6.1v26.1c0,3.4,-2.8,6.2,-6.1,6.2Z" class="g3"/>
<path d="M838.7,149.5H822.8c-1.7,0,-3.1,-1.4,-3.1,-3.1V130.7c0,-1.7,1.4,-3,3.1,-3h15.9c1.7,0,3.1,1.3,3.1,3v15.7c0,1.7,-1.4,3.1,-3.1,3.1Z" class="g0"/>
<image clip-path="url(#c0)" preserveAspectRatio="none" x="819" y="128" width="21" height="22" opacity="0.30000302" xlink:href="img/29.png"/>
<path d="M491.4,157.5H431.6c-3.4,0,-6.1,-2.7,-6.1,-6.1V125.5c0,-3.4,2.7,-6.1,6.1,-6.1h59.8c3.3,0,6.1,2.7,6.1,6.1v25.9c0,3.4,-2.8,6.1,-6.1,6.1Z" class="g4"/>
<path d="M491.4,157.5H431.6c-3.4,0,-6.1,-2.7,-6.1,-6.1V125.5c0,-3.4,2.7,-6.1,6.1,-6.1h59.8c3.3,0,6.1,2.7,6.1,6.1v25.9c0,3.4,-2.8,6.1,-6.1,6.1Z" class="g5"/>
<path d="M25.1,272.9H0v-8.8H25.1v8.8Z" class="ga"/>
<path clip-path="url(#c0)" d="M916,272.9H83.8v-8.8H916v8.8Z" class="ga"/>
<path d="M26.3,356.5H1.3v-8.8h25v8.8Z" class="ga"/>
<path clip-path="url(#c0)" d="M917.3,356.5H220.6v-8.8H917.3v8.8Z" class="ga"/>
<path d="M26.3,484.1H1.3v-8.8h25v8.8Z" class="ga"/>
<path clip-path="url(#c0)" d="M917.3,484.1h-755v-8.8h755v8.8Z" class="ga"/>
<path d="M25.1,608.1H0v-8.8H25.1v8.8Z" class="ga"/>
<path clip-path="url(#c0)" d="M916,608.1H193.4v-8.8H916v8.8Z" class="ga"/>
<path d="M874.7,368.9H695.6c-3.4,0,-6.1,-2.7,-6.1,-6.1V341.5c0,-3.4,2.7,-6.1,6.1,-6.1H874.7c3.3,0,6.1,2.7,6.1,6.1v21.3c0,3.4,-2.8,6.1,-6.1,6.1Z" class="g6"/>
<path d="M874.7,368.9H695.6c-3.4,0,-6.1,-2.7,-6.1,-6.1V341.5c0,-3.4,2.7,-6.1,6.1,-6.1H874.7c3.3,0,6.1,2.7,6.1,6.1v21.3c0,3.4,-2.8,6.1,-6.1,6.1Z" class="g3"/>
<path d="M327.8,621.2H265.3c-2,0,-3.7,-1.7,-3.7,-3.7V591.3c0,-2,1.7,-3.7,3.7,-3.7h62.5c2,0,3.7,1.7,3.7,3.7v26.2c0,2,-1.7,3.7,-3.7,3.7Z" class="g6"/>
<path d="M327.8,621.2H265.3c-2,0,-3.7,-1.7,-3.7,-3.7V591.3c0,-2,1.7,-3.7,3.7,-3.7h62.5c2,0,3.7,1.7,3.7,3.7v26.2c0,2,-1.7,3.7,-3.7,3.7Z" class="gb"/>
<path d="M482.2,621.2H345c-3,0,-5.4,-2.5,-5.4,-5.4V593c0,-3,2.4,-5.4,5.4,-5.4H482.2c3,0,5.4,2.4,5.4,5.4v22.8c0,2.9,-2.4,5.4,-5.4,5.4Z" class="g0"/>
<path d="M482.2,621.2H345c-3,0,-5.4,-2.5,-5.4,-5.4V593c0,-3,2.4,-5.4,5.4,-5.4H482.2c3,0,5.4,2.4,5.4,5.4v22.8c0,2.9,-2.4,5.4,-5.4,5.4Z" class="g3"/>
<path d="M561.6,620.5H499.2c-2.1,0,-3.7,-1.7,-3.7,-3.7V590.6c0,-2,1.6,-3.7,3.7,-3.7h62.4c2.1,0,3.7,1.7,3.7,3.7v26.2c0,2,-1.6,3.7,-3.7,3.7Z" class="g6"/>
<path d="M561.6,620.5H499.2c-2.1,0,-3.7,-1.7,-3.7,-3.7V590.6c0,-2,1.6,-3.7,3.7,-3.7h62.4c2.1,0,3.7,1.7,3.7,3.7v26.2c0,2,-1.6,3.7,-3.7,3.7Z" class="gb"/>
<path d="M716.1,620.5H578.9c-3,0,-5.4,-2.5,-5.4,-5.4V592.3c0,-3,2.4,-5.4,5.4,-5.4H716.1c3,0,5.4,2.4,5.4,5.4v22.8c0,2.9,-2.4,5.4,-5.4,5.4Z" class="g0"/>
<path d="M716.1,620.5H578.9c-3,0,-5.4,-2.5,-5.4,-5.4V592.3c0,-3,2.4,-5.4,5.4,-5.4H716.1c3,0,5.4,2.4,5.4,5.4v22.8c0,2.9,-2.4,5.4,-5.4,5.4Z" class="g3"/>
<image x="161" y="546" width="28" height="28" xlink:href="./shade/37.png"/>
<image x="161" y="546" width="28" height="28" xlink:href="./shade/38.png"/>
<image clip-path="url(#c0)" x="163" y="548" width="24" height="24" xlink:href="./shade/39.png"/>
<g clip-path="url(#c0)" style="mix-blend-mode: overlay;">
<path d="M185.4,560.3c0,5.6,-4.6,10.1,-10.1,10.1c-5.6,0,-10.1,-4.5,-10.1,-10.1c0,-5.6,4.5,-10.1,10.1,-10.1c5.5,0,10.1,4.5,10.1,10.1Z" class="gc"/>
</g>
<image x="165" y="550" width="20" height="20" xlink:href="./shade/40.png"/>
<image x="335" y="546" width="29" height="28" xlink:href="./shade/41.png"/>
<image x="335" y="546" width="29" height="28" xlink:href="./shade/42.png"/>
<image clip-path="url(#c0)" x="338" y="548" width="23" height="24" xlink:href="./shade/43.png"/>
<g clip-path="url(#c0)" style="mix-blend-mode: overlay;">
<path d="M359.5,560.3c0,5.6,-4.6,10.1,-10.1,10.1c-5.6,0,-10.1,-4.5,-10.1,-10.1c0,-5.6,4.5,-10.1,10.1,-10.1c5.5,0,10.1,4.5,10.1,10.1Z" class="gc"/>
</g>
<image x="339" y="550" width="20" height="20" xlink:href="./shade/44.png"/>
<image x="502" y="546" width="28" height="28" xlink:href="./shade/45.png"/>
<image x="502" y="546" width="28" height="28" xlink:href="./shade/46.png"/>
<image clip-path="url(#c0)" x="504" y="548" width="24" height="24" xlink:href="./shade/47.png"/>
<g clip-path="url(#c0)" style="mix-blend-mode: overlay;">
<path d="M526.3,560.3c0,5.6,-4.5,10.1,-10.1,10.1c-5.6,0,-10.1,-4.5,-10.1,-10.1c0,-5.6,4.5,-10.1,10.1,-10.1c5.6,0,10.1,4.5,10.1,10.1Z" class="gc"/>
</g>
<image x="506" y="550" width="20" height="20" xlink:href="./shade/48.png"/>
<path d="M873.8,620.5h-139c-3.3,0,-6.1,-2.8,-6.1,-6.2V591.8c0,-3.4,2.8,-6.1,6.1,-6.1h139c3.3,0,6.1,2.7,6.1,6.1v22.5c0,3.4,-2.8,6.2,-6.1,6.2Z" class="g4"/>
<path d="M873.8,620.5h-139c-3.3,0,-6.1,-2.8,-6.1,-6.2V591.8c0,-3.4,2.8,-6.1,6.1,-6.1h139c3.3,0,6.1,2.7,6.1,6.1v22.5c0,3.4,-2.8,6.2,-6.1,6.2Z" class="g5"/>
<path d="M754.8,615.2H739.6c-1.7,0,-3,-1.4,-3,-3.1V597c0,-1.7,1.3,-3.1,3,-3.1h15.2c1.7,0,3,1.4,3,3.1v15.1c0,1.7,-1.3,3.1,-3,3.1Z" class="g0"/>
<image clip-path="url(#c0)" preserveAspectRatio="none" x="736" y="594" width="22" height="22" opacity="0.30000302" xlink:href="img/30.png"/>
<path d="M25.1,702.8H0V694H25.1v8.8Z" class="ga"/>
<path clip-path="url(#c0)" d="M916,702.8H286.9V694H916v8.8Z" class="ga"/>
<path d="M222.6,765.6H99.4c-3.4,0,-6.2,-2.8,-6.2,-6.1V733.2c0,-3.4,2.8,-6.1,6.2,-6.1H222.6c3.3,0,6.1,2.7,6.1,6.1v26.3c0,3.3,-2.8,6.1,-6.1,6.1Z" class="g0"/>
<path d="M222.6,765.6H99.4c-3.4,0,-6.2,-2.8,-6.2,-6.1V733.2c0,-3.4,2.8,-6.1,6.2,-6.1H222.6c3.3,0,6.1,2.7,6.1,6.1v26.3c0,3.3,-2.8,6.1,-6.1,6.1Z" class="g3"/>
<path d="M238.1,811.7h-125c-3.3,0,-6.1,-2.7,-6.1,-6.1V779.3c0,-3.3,2.8,-6.1,6.1,-6.1h125c3.4,0,6.1,2.8,6.1,6.1v26.3c0,3.4,-2.7,6.1,-6.1,6.1Z" class="g0"/>
<path d="M238.1,811.7h-125c-3.3,0,-6.1,-2.7,-6.1,-6.1V779.3c0,-3.3,2.8,-6.1,6.1,-6.1h125c3.4,0,6.1,2.8,6.1,6.1v26.3c0,3.4,-2.7,6.1,-6.1,6.1Z" class="g3"/>
<path d="M446.4,906.3H131.6c-3.4,0,-6.2,-2.7,-6.2,-6.1V873.9c0,-3.3,2.8,-6.1,6.2,-6.1H446.4c3.3,0,6.1,2.8,6.1,6.1v26.3c0,3.4,-2.8,6.1,-6.1,6.1Z" class="g0"/>
<path d="M446.4,906.3H131.6c-3.4,0,-6.2,-2.7,-6.2,-6.1V873.9c0,-3.3,2.8,-6.1,6.2,-6.1H446.4c3.3,0,6.1,2.8,6.1,6.1v26.3c0,3.4,-2.8,6.1,-6.1,6.1Z" class="g3"/>
<path d="M873.2,906.3H563.1c-3.4,0,-6.2,-2.7,-6.2,-6.1V873.9c0,-3.3,2.8,-6.1,6.2,-6.1H873.2c3.4,0,6.2,2.8,6.2,6.1v26.3c0,3.4,-2.8,6.1,-6.2,6.1Z" class="g0"/>
<path d="M873.2,906.3H563.1c-3.4,0,-6.2,-2.7,-6.2,-6.1V873.9c0,-3.3,2.8,-6.1,6.2,-6.1H873.2c3.4,0,6.2,2.8,6.2,6.1v26.3c0,3.4,-2.8,6.1,-6.2,6.1Z" class="g3"/>
<path d="M678.8,765.6h-367c-3.4,0,-6.2,-2.8,-6.2,-6.1V733.2c0,-3.4,2.8,-6.1,6.2,-6.1h367c3.4,0,6.1,2.7,6.1,6.1v26.3c0,3.3,-2.7,6.1,-6.1,6.1Z" class="g0"/>
<path d="M678.8,765.6h-367c-3.4,0,-6.2,-2.8,-6.2,-6.1V733.2c0,-3.4,2.8,-6.1,6.2,-6.1h367c3.4,0,6.1,2.7,6.1,6.1v26.3c0,3.3,-2.7,6.1,-6.1,6.1Z" class="g3"/>
<path d="M225.8,858.3H36.2c-3.4,0,-6.2,-2.8,-6.2,-6.1V825.9c0,-3.4,2.8,-6.1,6.2,-6.1H225.8c3.4,0,6.2,2.7,6.2,6.1v26.3c0,3.3,-2.8,6.1,-6.2,6.1Z" class="g0"/>
<path d="M225.8,858.3H36.2c-3.4,0,-6.2,-2.8,-6.2,-6.1V825.9c0,-3.4,2.8,-6.1,6.2,-6.1H225.8c3.4,0,6.2,2.7,6.2,6.1v26.3c0,3.3,-2.8,6.1,-6.2,6.1Z" class="g3"/>
<path d="M540.5,952.6H101.9c-3.4,0,-6.1,-2.8,-6.1,-6.2V920.2c0,-3.4,2.7,-6.1,6.1,-6.1H540.5c3.4,0,6.1,2.7,6.1,6.1v26.2c0,3.4,-2.7,6.2,-6.1,6.2Z" class="g0"/>
<path d="M540.5,952.6H101.9c-3.4,0,-6.1,-2.8,-6.1,-6.2V920.2c0,-3.4,2.7,-6.1,6.1,-6.1H540.5c3.4,0,6.1,2.7,6.1,6.1v26.2c0,3.4,-2.7,6.2,-6.1,6.2Z" class="g3"/>
<path d="M873,765.6H764.8c-3.4,0,-6.1,-2.8,-6.1,-6.1V733.2c0,-3.4,2.7,-6.1,6.1,-6.1H873c3.4,0,6.1,2.7,6.1,6.1v26.3c0,3.3,-2.7,6.1,-6.1,6.1Z" class="g0"/>
<path d="M873,765.6H764.8c-3.4,0,-6.1,-2.8,-6.1,-6.1V733.2c0,-3.4,2.7,-6.1,6.1,-6.1H873c3.4,0,6.1,2.7,6.1,6.1v26.3c0,3.3,-2.7,6.1,-6.1,6.1Z" class="g3"/>
<path d="M873.3,811.9H341.7c-3.4,0,-6.1,-2.8,-6.1,-6.2V779.5c0,-3.4,2.7,-6.1,6.1,-6.1H873.3c3.4,0,6.1,2.7,6.1,6.1v26.2c0,3.4,-2.7,6.2,-6.1,6.2Z" class="g0"/>
<path d="M873.3,811.9H341.7c-3.4,0,-6.1,-2.8,-6.1,-6.2V779.5c0,-3.4,2.7,-6.1,6.1,-6.1H873.3c3.4,0,6.1,2.7,6.1,6.1v26.2c0,3.4,-2.7,6.2,-6.1,6.2Z" class="g3"/>
<path d="M511.5,858.3H388.9c-3.4,0,-6.1,-2.8,-6.1,-6.1V825.9c0,-3.4,2.7,-6.1,6.1,-6.1H511.5c3.4,0,6.1,2.7,6.1,6.1v26.3c0,3.3,-2.7,6.1,-6.1,6.1Z" class="g0"/>
<path d="M511.5,858.3H388.9c-3.4,0,-6.1,-2.8,-6.1,-6.1V825.9c0,-3.4,2.7,-6.1,6.1,-6.1H511.5c3.4,0,6.1,2.7,6.1,6.1v26.3c0,3.3,-2.7,6.1,-6.1,6.1Z" class="g3"/>
<path d="M873.8,858.1H648.1c-3.4,0,-6.1,-2.7,-6.1,-6.1V825.8c0,-3.4,2.7,-6.2,6.1,-6.2H873.8c3.3,0,6.1,2.8,6.1,6.2V852c0,3.4,-2.8,6.1,-6.1,6.1Z" class="g0"/>
<path d="M873.8,858.1H648.1c-3.4,0,-6.1,-2.7,-6.1,-6.1V825.8c0,-3.4,2.7,-6.2,6.1,-6.2H873.8c3.3,0,6.1,2.8,6.1,6.2V852c0,3.4,-2.8,6.1,-6.1,6.1Z" class="g3"/>
<path d="M78.9,765.6H36.4c-3.4,0,-6.1,-2.8,-6.1,-6.1V732.9c0,-3.3,2.7,-6.1,6.1,-6.1H78.9c3.4,0,6.2,2.8,6.2,6.1v26.6c0,3.3,-2.8,6.1,-6.2,6.1Z" class="g6"/>
<path d="M78.9,765.6H36.4c-3.4,0,-6.1,-2.8,-6.1,-6.1V732.9c0,-3.3,2.7,-6.1,6.1,-6.1H78.9c3.4,0,6.2,2.8,6.2,6.1v26.6c0,3.3,-2.8,6.1,-6.2,6.1Z" class="g3"/>
<path d="M94.2,811.7H36.7c-3.4,0,-6.2,-2.7,-6.2,-6.1V779.1c0,-3.4,2.8,-6.1,6.2,-6.1H94.2c3.3,0,6.1,2.7,6.1,6.1v26.5c0,3.4,-2.8,6.1,-6.1,6.1Z" class="g6"/>
<path d="M94.2,811.7H36.7c-3.4,0,-6.2,-2.7,-6.2,-6.1V779.1c0,-3.4,2.8,-6.1,6.2,-6.1H94.2c3.3,0,6.1,2.7,6.1,6.1v26.5c0,3.4,-2.8,6.1,-6.1,6.1Z" class="g3"/>
<path d="M111.6,906.3H37.7c-3.4,0,-6.1,-2.7,-6.1,-6.1V873.7c0,-3.4,2.7,-6.1,6.1,-6.1h73.9c3.4,0,6.1,2.7,6.1,6.1v26.5c0,3.4,-2.7,6.1,-6.1,6.1Z" class="g6"/>
<path d="M111.6,906.3H37.7c-3.4,0,-6.1,-2.7,-6.1,-6.1V873.7c0,-3.4,2.7,-6.1,6.1,-6.1h73.9c3.4,0,6.1,2.7,6.1,6.1v26.5c0,3.4,-2.7,6.1,-6.1,6.1Z" class="g3"/>
<path d="M82,952.7H36.2C32.8,952.7,30,950,30,946.6V920c0,-3.3,2.8,-6.1,6.2,-6.1H82c3.4,0,6.1,2.8,6.1,6.1v26.6c0,3.4,-2.7,6.1,-6.1,6.1Z" class="g6"/>
<path d="M82,952.7H36.2C32.8,952.7,30,950,30,946.6V920c0,-3.3,2.8,-6.1,6.2,-6.1H82c3.4,0,6.1,2.8,6.1,6.1v26.6c0,3.4,-2.7,6.1,-6.1,6.1Z" class="g3"/>
<path d="M540.5,906.3h-74c-3.4,0,-6.1,-2.7,-6.1,-6.1V873.7c0,-3.4,2.7,-6.1,6.1,-6.1h74c3.4,0,6.1,2.7,6.1,6.1v26.5c0,3.4,-2.7,6.1,-6.1,6.1Z" class="g6"/>
<path d="M540.5,906.3h-74c-3.4,0,-6.1,-2.7,-6.1,-6.1V873.7c0,-3.4,2.7,-6.1,6.1,-6.1h74c3.4,0,6.1,2.7,6.1,6.1v26.5c0,3.4,-2.7,6.1,-6.1,6.1Z" class="g3"/>
<path d="M290.3,765.6h-47c-3.4,0,-6.2,-2.8,-6.2,-6.1V732.9c0,-3.3,2.8,-6.1,6.2,-6.1h47c3.4,0,6.1,2.8,6.1,6.1v26.6c0,3.3,-2.7,6.1,-6.1,6.1Z" class="g6"/>
<path d="M290.3,765.6h-47c-3.4,0,-6.2,-2.8,-6.2,-6.1V732.9c0,-3.3,2.8,-6.1,6.2,-6.1h47c3.4,0,6.1,2.8,6.1,6.1v26.6c0,3.3,-2.7,6.1,-6.1,6.1Z" class="g3"/>
<path d="M746.2,765.6h-47c-3.4,0,-6.1,-2.8,-6.1,-6.1V732.9c0,-3.3,2.7,-6.1,6.1,-6.1h47c3.4,0,6.1,2.8,6.1,6.1v26.6c0,3.3,-2.7,6.1,-6.1,6.1Z" class="g6"/>
<path d="M746.2,765.6h-47c-3.4,0,-6.1,-2.8,-6.1,-6.1V732.9c0,-3.3,2.7,-6.1,6.1,-6.1h47c3.4,0,6.1,2.8,6.1,6.1v26.6c0,3.3,-2.7,6.1,-6.1,6.1Z" class="g3"/>
<path d="M322.4,811.9H258.9c-3.3,0,-6.1,-2.8,-6.1,-6.2V779.2c0,-3.4,2.8,-6.1,6.1,-6.1h63.5c3.3,0,6.1,2.7,6.1,6.1v26.5c0,3.4,-2.8,6.2,-6.1,6.2Z" class="g6"/>
<path d="M322.4,811.9H258.9c-3.3,0,-6.1,-2.8,-6.1,-6.2V779.2c0,-3.4,2.8,-6.1,6.1,-6.1h63.5c3.3,0,6.1,2.7,6.1,6.1v26.5c0,3.4,-2.8,6.2,-6.1,6.2Z" class="g3"/>
<path d="M626.8,858.4H531.9c-3.3,0,-6.1,-2.7,-6.1,-6.1V825.8c0,-3.4,2.8,-6.2,6.1,-6.2h94.9c3.4,0,6.1,2.8,6.1,6.2v26.5c0,3.4,-2.7,6.1,-6.1,6.1Z" class="g6"/>
<path d="M626.8,858.4H531.9c-3.3,0,-6.1,-2.7,-6.1,-6.1V825.8c0,-3.4,2.8,-6.2,6.1,-6.2h94.9c3.4,0,6.1,2.8,6.1,6.2v26.5c0,3.4,-2.7,6.1,-6.1,6.1Z" class="g3"/>
<path d="M875.5,952.6H674c-3.4,0,-6.1,-2.8,-6.1,-6.2V920.2c0,-3.4,2.7,-6.1,6.1,-6.1H875.5c3.4,0,6.1,2.7,6.1,6.1v26.2c0,3.4,-2.7,6.2,-6.1,6.2Z" class="gd"/>
<path d="M875.5,952.6H674c-3.4,0,-6.1,-2.8,-6.1,-6.2V920.2c0,-3.4,2.7,-6.1,6.1,-6.1H875.5c3.4,0,6.1,2.7,6.1,6.1v26.2c0,3.4,-2.7,6.2,-6.1,6.2Z" class="ge"/>
<path d="M654.2,952.6H559.3c-3.3,0,-6.1,-2.8,-6.1,-6.2V919.9c0,-3.4,2.8,-6.1,6.1,-6.1h94.9c3.4,0,6.1,2.7,6.1,6.1v26.5c0,3.4,-2.7,6.2,-6.1,6.2Z" class="gf"/>
<path d="M654.2,952.6H559.3c-3.3,0,-6.1,-2.8,-6.1,-6.2V919.9c0,-3.4,2.8,-6.1,6.1,-6.1h94.9c3.4,0,6.1,2.7,6.1,6.1v26.5c0,3.4,-2.7,6.2,-6.1,6.2Z" class="ge"/>
<path d="M368.5,858.4H244.7c-3.4,0,-6.1,-2.7,-6.1,-6.1V825.8c0,-3.4,2.7,-6.2,6.1,-6.2H368.5c3.4,0,6.1,2.8,6.1,6.2v26.5c0,3.4,-2.7,6.1,-6.1,6.1Z" class="g6"/>
<path d="M368.5,858.4H244.7c-3.4,0,-6.1,-2.7,-6.1,-6.1V825.8c0,-3.4,2.7,-6.2,6.1,-6.2H368.5c3.4,0,6.1,2.8,6.1,6.2v26.5c0,3.4,-2.7,6.1,-6.1,6.1Z" class="g3"/>
<path d="M874.7,714.4H819.6c-3.4,0,-6.1,-2.7,-6.1,-6.1V687c0,-3.4,2.7,-6.1,6.1,-6.1h55.1c3.3,0,6.1,2.7,6.1,6.1v21.3c0,3.4,-2.8,6.1,-6.1,6.1Z" class="g6"/>
<path d="M874.7,714.4H819.6c-3.4,0,-6.1,-2.7,-6.1,-6.1V687c0,-3.4,2.7,-6.1,6.1,-6.1h55.1c3.3,0,6.1,2.7,6.1,6.1v21.3c0,3.4,-2.8,6.1,-6.1,6.1Z" class="gb"/>
<path d="M506.9,714.4H428.5c-2.1,0,-3.7,-1.6,-3.7,-3.7V684.6c0,-2,1.6,-3.7,3.7,-3.7h78.4c2.1,0,3.7,1.7,3.7,3.7v26.1c0,2.1,-1.6,3.7,-3.7,3.7Z" class="g9"/>
<path d="M506.9,714.4H428.5c-2.1,0,-3.7,-1.6,-3.7,-3.7V684.6c0,-2,1.6,-3.7,3.7,-3.7h78.4c2.1,0,3.7,1.7,3.7,3.7v26.1c0,2.1,-1.6,3.7,-3.7,3.7Z" class="g3"/>
<path d="M804.9,714.4H619.2c-2.1,0,-3.7,-1.6,-3.7,-3.7V684.6c0,-2,1.6,-3.7,3.7,-3.7H804.9c2,0,3.7,1.7,3.7,3.7v26.1c0,2.1,-1.7,3.7,-3.7,3.7Z" class="g6"/>
<path d="M804.9,714.4H619.2c-2.1,0,-3.7,-1.6,-3.7,-3.7V684.6c0,-2,1.6,-3.7,3.7,-3.7H804.9c2,0,3.7,1.7,3.7,3.7v26.1c0,2.1,-1.7,3.7,-3.7,3.7Z" class="gb"/>
<path d="M449.9,708.3H434.7c-1.7,0,-3.1,-1.4,-3.1,-3.1V690.1c0,-1.7,1.4,-3.1,3.1,-3.1h15.2c1.6,0,3,1.4,3,3.1v15.1c0,1.7,-1.4,3.1,-3,3.1Z" class="g0"/>
<image clip-path="url(#c0)" preserveAspectRatio="none" x="431" y="687" width="21" height="22" opacity="0.30000302" xlink:href="img/31.png"/>
<path d="M605.4,714.4H526.9c-2,0,-3.7,-1.6,-3.7,-3.7V684.6c0,-2,1.7,-3.7,3.7,-3.7h78.5c2,0,3.7,1.7,3.7,3.7v26.1c0,2.1,-1.7,3.7,-3.7,3.7Z" class="g9"/>
<path d="M605.4,714.4H526.9c-2,0,-3.7,-1.6,-3.7,-3.7V684.6c0,-2,1.7,-3.7,3.7,-3.7h78.5c2,0,3.7,1.7,3.7,3.7v26.1c0,2.1,-1.7,3.7,-3.7,3.7Z" class="g3"/>
<path d="M548.9,708.3H533.7c-1.6,0,-3,-1.4,-3,-3.1V690.1c0,-1.7,1.4,-3.1,3,-3.1h15.2c1.7,0,3,1.4,3,3.1v15.1c0,1.7,-1.3,3.1,-3,3.1Z" class="g0"/>
<image clip-path="url(#c0)" preserveAspectRatio="none" x="530" y="687" width="22" height="22" opacity="0.30000302" xlink:href="img/32.png"/>
<path d="M25.1,991.6H0v-8.8H25.1v8.8Z" class="ga"/>
<path clip-path="url(#c0)" d="M916,991.6H286.9v-8.8H916v8.8Z" class="ga"/>
<path d="M222.6,1054.3H99.4c-3.4,0,-6.2,-2.7,-6.2,-6.1V1022c0,-3.4,2.8,-6.2,6.2,-6.2H222.6c3.3,0,6.1,2.8,6.1,6.2v26.2c0,3.4,-2.8,6.1,-6.1,6.1Z" class="g0"/>
<path d="M222.6,1054.3H99.4c-3.4,0,-6.2,-2.7,-6.2,-6.1V1022c0,-3.4,2.8,-6.2,6.2,-6.2H222.6c3.3,0,6.1,2.8,6.1,6.2v26.2c0,3.4,-2.8,6.1,-6.1,6.1Z" class="g3"/>
<path d="M238.1,1100.5h-125c-3.3,0,-6.1,-2.8,-6.1,-6.1v-26.3c0,-3.4,2.8,-6.1,6.1,-6.1h125c3.4,0,6.1,2.7,6.1,6.1v26.3c0,3.3,-2.7,6.1,-6.1,6.1Z" class="g0"/>
<path d="M238.1,1100.5h-125c-3.3,0,-6.1,-2.8,-6.1,-6.1v-26.3c0,-3.4,2.8,-6.1,6.1,-6.1h125c3.4,0,6.1,2.7,6.1,6.1v26.3c0,3.3,-2.7,6.1,-6.1,6.1Z" class="g3"/>
<path d="M446.4,1195.1H131.6c-3.4,0,-6.2,-2.8,-6.2,-6.1v-26.3c0,-3.4,2.8,-6.1,6.2,-6.1H446.4c3.3,0,6.1,2.7,6.1,6.1V1189c0,3.3,-2.8,6.1,-6.1,6.1Z" class="g0"/>
<path d="M446.4,1195.1H131.6c-3.4,0,-6.2,-2.8,-6.2,-6.1v-26.3c0,-3.4,2.8,-6.1,6.2,-6.1H446.4c3.3,0,6.1,2.7,6.1,6.1V1189c0,3.3,-2.8,6.1,-6.1,6.1Z" class="g3"/>
<path d="M873.2,1195.1H563.1c-3.4,0,-6.2,-2.8,-6.2,-6.1v-26.3c0,-3.4,2.8,-6.1,6.2,-6.1H873.2c3.4,0,6.2,2.7,6.2,6.1V1189c0,3.3,-2.8,6.1,-6.2,6.1Z" class="g0"/>
<path d="M873.2,1195.1H563.1c-3.4,0,-6.2,-2.8,-6.2,-6.1v-26.3c0,-3.4,2.8,-6.1,6.2,-6.1H873.2c3.4,0,6.2,2.7,6.2,6.1V1189c0,3.3,-2.8,6.1,-6.2,6.1Z" class="g3"/>
<path d="M678.8,1054.3h-367c-3.4,0,-6.2,-2.7,-6.2,-6.1V1022c0,-3.4,2.8,-6.2,6.2,-6.2h367c3.4,0,6.1,2.8,6.1,6.2v26.2c0,3.4,-2.7,6.1,-6.1,6.1Z" class="g0"/>
<path d="M678.8,1054.3h-367c-3.4,0,-6.2,-2.7,-6.2,-6.1V1022c0,-3.4,2.8,-6.2,6.2,-6.2h367c3.4,0,6.1,2.8,6.1,6.2v26.2c0,3.4,-2.7,6.1,-6.1,6.1Z" class="g3"/>
<path d="M225.8,1147H36.2c-3.4,0,-6.2,-2.7,-6.2,-6.1v-26.3c0,-3.3,2.8,-6.1,6.2,-6.1H225.8c3.4,0,6.2,2.8,6.2,6.1v26.3c0,3.4,-2.8,6.1,-6.2,6.1Z" class="g0"/>
<path d="M225.8,1147H36.2c-3.4,0,-6.2,-2.7,-6.2,-6.1v-26.3c0,-3.3,2.8,-6.1,6.2,-6.1H225.8c3.4,0,6.2,2.8,6.2,6.1v26.3c0,3.4,-2.8,6.1,-6.2,6.1Z" class="g3"/>
<path d="M540.5,1241.3H101.9c-3.4,0,-6.1,-2.7,-6.1,-6.1v-26.3c0,-3.3,2.7,-6.1,6.1,-6.1H540.5c3.4,0,6.1,2.8,6.1,6.1v26.3c0,3.4,-2.7,6.1,-6.1,6.1Z" class="g0"/>
<path d="M540.5,1241.3H101.9c-3.4,0,-6.1,-2.7,-6.1,-6.1v-26.3c0,-3.3,2.7,-6.1,6.1,-6.1H540.5c3.4,0,6.1,2.8,6.1,6.1v26.3c0,3.4,-2.7,6.1,-6.1,6.1Z" class="g3"/>
<path d="M873,1054.3H764.8c-3.4,0,-6.1,-2.7,-6.1,-6.1V1022c0,-3.4,2.7,-6.2,6.1,-6.2H873c3.4,0,6.1,2.8,6.1,6.2v26.2c0,3.4,-2.7,6.1,-6.1,6.1Z" class="g0"/>
<path d="M873,1054.3H764.8c-3.4,0,-6.1,-2.7,-6.1,-6.1V1022c0,-3.4,2.7,-6.2,6.1,-6.2H873c3.4,0,6.1,2.8,6.1,6.2v26.2c0,3.4,-2.7,6.1,-6.1,6.1Z" class="g3"/>
<path d="M873.3,1100.6H341.7c-3.4,0,-6.1,-2.7,-6.1,-6.1v-26.3c0,-3.3,2.7,-6.1,6.1,-6.1H873.3c3.4,0,6.1,2.8,6.1,6.1v26.3c0,3.4,-2.7,6.1,-6.1,6.1Z" class="g0"/>
<path d="M873.3,1100.6H341.7c-3.4,0,-6.1,-2.7,-6.1,-6.1v-26.3c0,-3.3,2.7,-6.1,6.1,-6.1H873.3c3.4,0,6.1,2.8,6.1,6.1v26.3c0,3.4,-2.7,6.1,-6.1,6.1Z" class="g3"/>
<path d="M511.5,1147H388.9c-3.4,0,-6.1,-2.7,-6.1,-6.1v-26.3c0,-3.3,2.7,-6.1,6.1,-6.1H511.5c3.4,0,6.1,2.8,6.1,6.1v26.3c0,3.4,-2.7,6.1,-6.1,6.1Z" class="g0"/>
<path d="M511.5,1147H388.9c-3.4,0,-6.1,-2.7,-6.1,-6.1v-26.3c0,-3.3,2.7,-6.1,6.1,-6.1H511.5c3.4,0,6.1,2.8,6.1,6.1v26.3c0,3.4,-2.7,6.1,-6.1,6.1Z" class="g3"/>
<path d="M873.8,1146.9H648.1c-3.4,0,-6.1,-2.8,-6.1,-6.1v-26.3c0,-3.4,2.7,-6.1,6.1,-6.1H873.8c3.3,0,6.1,2.7,6.1,6.1v26.3c0,3.3,-2.8,6.1,-6.1,6.1Z" class="g0"/>
<path d="M873.8,1146.9H648.1c-3.4,0,-6.1,-2.8,-6.1,-6.1v-26.3c0,-3.4,2.7,-6.1,6.1,-6.1H873.8c3.3,0,6.1,2.7,6.1,6.1v26.3c0,3.3,-2.8,6.1,-6.1,6.1Z" class="g3"/>
<path d="M78.9,1054.3H36.4c-3.4,0,-6.1,-2.7,-6.1,-6.1v-26.5c0,-3.4,2.7,-6.1,6.1,-6.1H78.9c3.4,0,6.2,2.7,6.2,6.1v26.5c0,3.4,-2.8,6.1,-6.2,6.1Z" class="g6"/>
<path d="M78.9,1054.3H36.4c-3.4,0,-6.1,-2.7,-6.1,-6.1v-26.5c0,-3.4,2.7,-6.1,6.1,-6.1H78.9c3.4,0,6.2,2.7,6.2,6.1v26.5c0,3.4,-2.8,6.1,-6.2,6.1Z" class="g3"/>
<path d="M94.2,1100.5H36.7c-3.4,0,-6.2,-2.8,-6.2,-6.1v-26.6c0,-3.4,2.8,-6.1,6.2,-6.1H94.2c3.3,0,6.1,2.7,6.1,6.1v26.6c0,3.3,-2.8,6.1,-6.1,6.1Z" class="g6"/>
<path d="M94.2,1100.5H36.7c-3.4,0,-6.2,-2.8,-6.2,-6.1v-26.6c0,-3.4,2.8,-6.1,6.2,-6.1H94.2c3.3,0,6.1,2.7,6.1,6.1v26.6c0,3.3,-2.8,6.1,-6.1,6.1Z" class="g3"/>
<path d="M111.6,1195.1H37.7c-3.4,0,-6.1,-2.8,-6.1,-6.1v-26.6c0,-3.3,2.7,-6.1,6.1,-6.1h73.9c3.4,0,6.1,2.8,6.1,6.1V1189c0,3.3,-2.7,6.1,-6.1,6.1Z" class="g6"/>
<path d="M111.6,1195.1H37.7c-3.4,0,-6.1,-2.8,-6.1,-6.1v-26.6c0,-3.3,2.7,-6.1,6.1,-6.1h73.9c3.4,0,6.1,2.8,6.1,6.1V1189c0,3.3,-2.7,6.1,-6.1,6.1Z" class="g3"/>
<path d="M82,1241.4H36.2c-3.4,0,-6.2,-2.7,-6.2,-6.1v-26.5c0,-3.4,2.8,-6.1,6.2,-6.1H82c3.4,0,6.1,2.7,6.1,6.1v26.5c0,3.4,-2.7,6.1,-6.1,6.1Z" class="g6"/>
<path d="M82,1241.4H36.2c-3.4,0,-6.2,-2.7,-6.2,-6.1v-26.5c0,-3.4,2.8,-6.1,6.2,-6.1H82c3.4,0,6.1,2.7,6.1,6.1v26.5c0,3.4,-2.7,6.1,-6.1,6.1Z" class="g3"/>
<path d="M540.5,1195.1h-74c-3.4,0,-6.1,-2.8,-6.1,-6.1v-26.6c0,-3.3,2.7,-6.1,6.1,-6.1h74c3.4,0,6.1,2.8,6.1,6.1V1189c0,3.3,-2.7,6.1,-6.1,6.1Z" class="g6"/>
<path d="M540.5,1195.1h-74c-3.4,0,-6.1,-2.8,-6.1,-6.1v-26.6c0,-3.3,2.7,-6.1,6.1,-6.1h74c3.4,0,6.1,2.8,6.1,6.1V1189c0,3.3,-2.7,6.1,-6.1,6.1Z" class="g3"/>
<path d="M290.3,1054.3h-47c-3.4,0,-6.2,-2.7,-6.2,-6.1v-26.5c0,-3.4,2.8,-6.1,6.2,-6.1h47c3.4,0,6.1,2.7,6.1,6.1v26.5c0,3.4,-2.7,6.1,-6.1,6.1Z" class="g6"/>
<path d="M290.3,1054.3h-47c-3.4,0,-6.2,-2.7,-6.2,-6.1v-26.5c0,-3.4,2.8,-6.1,6.2,-6.1h47c3.4,0,6.1,2.7,6.1,6.1v26.5c0,3.4,-2.7,6.1,-6.1,6.1Z" class="g3"/>
<path d="M746.2,1054.3h-47c-3.4,0,-6.1,-2.7,-6.1,-6.1v-26.5c0,-3.4,2.7,-6.1,6.1,-6.1h47c3.4,0,6.1,2.7,6.1,6.1v26.5c0,3.4,-2.7,6.1,-6.1,6.1Z" class="g6"/>
<path d="M746.2,1054.3h-47c-3.4,0,-6.1,-2.7,-6.1,-6.1v-26.5c0,-3.4,2.7,-6.1,6.1,-6.1h47c3.4,0,6.1,2.7,6.1,6.1v26.5c0,3.4,-2.7,6.1,-6.1,6.1Z" class="g3"/>
<path d="M322.4,1100.6H258.9c-3.3,0,-6.1,-2.7,-6.1,-6.1V1068c0,-3.4,2.8,-6.2,6.1,-6.2h63.5c3.3,0,6.1,2.8,6.1,6.2v26.5c0,3.4,-2.8,6.1,-6.1,6.1Z" class="g6"/>
<path d="M322.4,1100.6H258.9c-3.3,0,-6.1,-2.7,-6.1,-6.1V1068c0,-3.4,2.8,-6.2,6.1,-6.2h63.5c3.3,0,6.1,2.8,6.1,6.2v26.5c0,3.4,-2.8,6.1,-6.1,6.1Z" class="g3"/>
<path d="M626.8,1147.2H531.9c-3.3,0,-6.1,-2.8,-6.1,-6.2v-26.5c0,-3.4,2.8,-6.1,6.1,-6.1h94.9c3.4,0,6.1,2.7,6.1,6.1V1141c0,3.4,-2.7,6.2,-6.1,6.2Z" class="g6"/>
<path d="M626.8,1147.2H531.9c-3.3,0,-6.1,-2.8,-6.1,-6.2v-26.5c0,-3.4,2.8,-6.1,6.1,-6.1h94.9c3.4,0,6.1,2.7,6.1,6.1V1141c0,3.4,-2.7,6.2,-6.1,6.2Z" class="g3"/>
<path d="M875.5,1241.3H674c-3.4,0,-6.1,-2.7,-6.1,-6.1v-26.3c0,-3.3,2.7,-6.1,6.1,-6.1H875.5c3.4,0,6.1,2.8,6.1,6.1v26.3c0,3.4,-2.7,6.1,-6.1,6.1Z" class="gd"/>
<path d="M875.5,1241.3H674c-3.4,0,-6.1,-2.7,-6.1,-6.1v-26.3c0,-3.3,2.7,-6.1,6.1,-6.1H875.5c3.4,0,6.1,2.8,6.1,6.1v26.3c0,3.4,-2.7,6.1,-6.1,6.1Z" class="ge"/>
<path d="M654.2,1241.3H559.3c-3.3,0,-6.1,-2.7,-6.1,-6.1v-26.5c0,-3.4,2.8,-6.2,6.1,-6.2h94.9c3.4,0,6.1,2.8,6.1,6.2v26.5c0,3.4,-2.7,6.1,-6.1,6.1Z" class="gf"/>
<path d="M654.2,1241.3H559.3c-3.3,0,-6.1,-2.7,-6.1,-6.1v-26.5c0,-3.4,2.8,-6.2,6.1,-6.2h94.9c3.4,0,6.1,2.8,6.1,6.2v26.5c0,3.4,-2.7,6.1,-6.1,6.1Z" class="ge"/>
<path d="M368.5,1147.2H244.7c-3.4,0,-6.1,-2.8,-6.1,-6.2v-26.5c0,-3.4,2.7,-6.1,6.1,-6.1H368.5c3.4,0,6.1,2.7,6.1,6.1V1141c0,3.4,-2.7,6.2,-6.1,6.2Z" class="g6"/>
<path d="M368.5,1147.2H244.7c-3.4,0,-6.1,-2.8,-6.1,-6.2v-26.5c0,-3.4,2.7,-6.1,6.1,-6.1H368.5c3.4,0,6.1,2.7,6.1,6.1V1141c0,3.4,-2.7,6.2,-6.1,6.2Z" class="g3"/>
<path d="M874.7,1003.2H819.6c-3.4,0,-6.1,-2.8,-6.1,-6.1V975.8c0,-3.4,2.7,-6.1,6.1,-6.1h55.1c3.3,0,6.1,2.7,6.1,6.1v21.3c0,3.3,-2.8,6.1,-6.1,6.1Z" class="g6"/>
<path d="M874.7,1003.2H819.6c-3.4,0,-6.1,-2.8,-6.1,-6.1V975.8c0,-3.4,2.7,-6.1,6.1,-6.1h55.1c3.3,0,6.1,2.7,6.1,6.1v21.3c0,3.3,-2.8,6.1,-6.1,6.1Z" class="gb"/>
<path d="M506.9,1003.2H428.5c-2.1,0,-3.7,-1.7,-3.7,-3.7V973.4c0,-2.1,1.6,-3.7,3.7,-3.7h78.4c2.1,0,3.7,1.6,3.7,3.7v26.1c0,2,-1.6,3.7,-3.7,3.7Z" class="g9"/>
<path d="M506.9,1003.2H428.5c-2.1,0,-3.7,-1.7,-3.7,-3.7V973.4c0,-2.1,1.6,-3.7,3.7,-3.7h78.4c2.1,0,3.7,1.6,3.7,3.7v26.1c0,2,-1.6,3.7,-3.7,3.7Z" class="g3"/>
<path d="M804.9,1003.2H619.2c-2.1,0,-3.7,-1.7,-3.7,-3.7V973.4c0,-2.1,1.6,-3.7,3.7,-3.7H804.9c2,0,3.7,1.6,3.7,3.7v26.1c0,2,-1.7,3.7,-3.7,3.7Z" class="g6"/>
<path d="M804.9,1003.2H619.2c-2.1,0,-3.7,-1.7,-3.7,-3.7V973.4c0,-2.1,1.6,-3.7,3.7,-3.7H804.9c2,0,3.7,1.6,3.7,3.7v26.1c0,2,-1.7,3.7,-3.7,3.7Z" class="gb"/>
<path d="M449.9,997H434.7c-1.7,0,-3.1,-1.3,-3.1,-3V978.8c0,-1.6,1.4,-3,3.1,-3h15.2c1.6,0,3,1.4,3,3V994c0,1.7,-1.4,3,-3,3Z" class="g0"/>
<image clip-path="url(#c0)" preserveAspectRatio="none" x="431" y="976" width="21" height="21" opacity="0.30000302" xlink:href="img/33.png"/>
<path d="M605.4,1003.2H526.9c-2,0,-3.7,-1.7,-3.7,-3.7V973.4c0,-2.1,1.7,-3.7,3.7,-3.7h78.5c2,0,3.7,1.6,3.7,3.7v26.1c0,2,-1.7,3.7,-3.7,3.7Z" class="g9"/>
<path d="M605.4,1003.2H526.9c-2,0,-3.7,-1.7,-3.7,-3.7V973.4c0,-2.1,1.7,-3.7,3.7,-3.7h78.5c2,0,3.7,1.6,3.7,3.7v26.1c0,2,-1.7,3.7,-3.7,3.7Z" class="g3"/>
<path d="M548.9,997H533.7c-1.6,0,-3,-1.3,-3,-3V978.8c0,-1.6,1.4,-3,3,-3h15.2c1.7,0,3,1.4,3,3V994c0,1.7,-1.3,3,-3,3Z" class="g0"/>
<image clip-path="url(#c0)" preserveAspectRatio="none" x="530" y="976" width="22" height="21" opacity="0.30000302" xlink:href="img/34.png"/>
</svg>